<svg width="49" height="60" viewBox="0 0 49 60" fill="none" xmlns="http://www.w3.org/2000/svg">
<path d="M4.57895 10.7566H18V9.20825H3.78947C3.35289 9.20825 3 9.55432 3 9.98245V32.4341C3 32.8622 3.35289 33.2083 3.78947 33.2083H6.15789V31.6599H4.57895V10.7566Z" fill="#D8D7E6"/>
<path fill-rule="evenodd" clip-rule="evenodd" d="M8.76923 25.2083H17.2308C17.6562 25.2083 18 25.5559 18 25.986V38.4305C18 38.8606 17.6562 39.2083 17.2308 39.2083H8.76923C8.34385 39.2083 8 38.8606 8 38.4305V25.986C8 25.5559 8.34385 25.2083 8.76923 25.2083ZM11.8462 35.7083C11.8462 36.3523 12.3631 36.8749 13 36.8749C13.6369 36.8749 14.1538 36.3523 14.1538 35.7083C14.1538 35.0643 13.6369 34.5416 13 34.5416C12.3631 34.5416 11.8462 35.0643 11.8462 35.7083Z" fill="#247C6D"/>
<path fill-rule="evenodd" clip-rule="evenodd" d="M20.5789 3.20825H32.4211C33.2918 3.20825 34 3.90139 34 4.75371V18.6628C34 19.5151 33.2918 20.2083 32.4211 20.2083H20.5789C19.7082 20.2083 19 19.5151 19 18.6628V4.75371C19 3.90139 19.7082 3.20825 20.5789 3.20825ZM25.3158 16.731C25.3158 17.3708 25.8463 17.8901 26.5 17.8901C27.1537 17.8901 27.6842 17.3708 27.6842 16.731C27.6842 16.0912 27.1537 15.5719 26.5 15.5719C25.8463 15.5719 25.3158 16.0912 25.3158 16.731Z" fill="#247C6D"/>
<path d="M38.2 9.20825H35.8V10.7638H37.4V31.7638H19V37.2083H27C27.4416 37.2083 27.8 36.8598 27.8 36.4305C27.8 36.0011 27.4416 35.6527 27 35.6527H23.8V33.3194H38.2C38.6424 33.3194 39 32.9717 39 32.5416V9.98603C39 9.55592 38.6424 9.20825 38.2 9.20825Z" fill="#D8D7E6"/>
</svg>
