<svg width="50" height="60" viewBox="0 0 50 60" fill="none" xmlns="http://www.w3.org/2000/svg">
<path d="M18.6913 23.9083H7.42829C7.01382 23.9083 6.67743 23.5516 6.67743 23.1121V4.00441C6.67743 3.56493 7.01382 3.20825 7.42829 3.20825H18.6913C19.1057 3.20825 19.4421 3.56493 19.4421 4.00441V23.1121C19.4421 23.5516 19.1057 23.9083 18.6913 23.9083Z" fill="#247C6D"/>
<path d="M18.6913 39.2083H7.42829C7.01382 39.2083 6.67743 38.8339 6.67743 38.3726V28.344C6.67743 27.8827 7.01382 27.5083 7.42829 27.5083H18.6913C19.1057 27.5083 19.4421 27.8827 19.4421 28.344V38.3726C19.4421 38.8339 19.1057 39.2083 18.6913 39.2083Z" fill="#D8D7E6"/>
<path d="M36.9266 14.9083H25.6636C25.2491 14.9083 24.9127 14.5339 24.9127 14.0725V4.04397C24.9127 3.58265 25.2491 3.20825 25.6636 3.20825H36.9266C37.341 3.20825 37.6774 3.58265 37.6774 4.04397V14.0725C37.6774 14.5339 37.341 14.9083 36.9266 14.9083Z" fill="#D8D7E6"/>
<path d="M36.9266 39.2083H25.6636C25.2491 39.2083 24.9127 38.8516 24.9127 38.4121V19.3045C24.9127 18.865 25.2491 18.5083 25.6636 18.5083H36.9266C37.341 18.5083 37.6774 18.865 37.6774 19.3045V38.4121C37.6774 38.8516 37.341 39.2083 36.9266 39.2083Z" fill="#247C6D"/>
</svg>
