<svg width="50" height="60" viewBox="0 0 50 60" fill="none" xmlns="http://www.w3.org/2000/svg">
<path d="M39.4221 27.3321L35.7724 25.2083L22.5934 32.8712C21.8182 33.3233 20.8659 33.3233 20.0907 32.8712L6.91504 25.2083L3.26204 27.3321C3.00023 27.4846 2.83868 27.7683 2.83868 28.0754C2.83868 28.3826 3.00023 28.6663 3.26204 28.8188L20.9216 39.0955C21.1801 39.2458 21.4973 39.2458 21.7558 39.0955L39.4153 28.8188C39.6771 28.6663 39.8387 28.3826 39.8387 28.0754C39.8387 27.7683 39.6771 27.4846 39.4153 27.3321H39.4221Z" fill="#247C6D"/>
<path d="M39.4221 20.3321L35.7724 18.2083L22.5934 25.8712C21.8182 26.3233 20.8659 26.3233 20.0907 25.8712L6.91504 18.2083L3.26204 20.3321C3.00023 20.4846 2.83868 20.7683 2.83868 21.0754C2.83868 21.3826 3.00023 21.6663 3.26204 21.8188L20.9216 32.0955C21.1801 32.2458 21.4973 32.2458 21.7558 32.0955L39.4153 21.8188C39.6771 21.6663 39.8387 21.3826 39.8387 21.0754C39.8387 20.7683 39.6771 20.4846 39.4153 20.3321H39.4221Z" fill="#D8D7E6"/>
<path d="M39.4153 12.4738L21.7558 2.31967C21.4973 2.17111 21.1801 2.17111 20.9216 2.31967L3.26204 12.4738C3.00023 12.6245 2.83868 12.9047 2.83868 13.2083C2.83868 13.5118 3.00023 13.792 3.26204 13.9427L20.9216 24.0968C21.1801 24.2454 21.4973 24.2454 21.7558 24.0968L39.4153 13.9427C39.6771 13.792 39.8387 13.5118 39.8387 13.2083C39.8387 12.9047 39.6771 12.6245 39.4153 12.4738Z" fill="#247C6D"/>
</svg>
